<svg width="30" height="32" viewBox="0 0 30 32" fill="none" xmlns="http://www.w3.org/2000/svg">
<g id="_&#229;&#156;&#150;&#229;&#177;&#164;_1" clip-path="url(#clip0_7_1806)">
<path id="Vector" d="M18.0637 27.5222C17.6775 28.3674 17.3425 29.1821 16.9387 29.9608C16.5891 30.6351 16.1601 31.2839 15.4836 31.6744C14.7242 32.1127 13.8085 32.161 13.0833 31.4908C12.358 30.8203 11.8662 30.0021 11.451 29.1241C10.6158 27.3568 10.2011 25.4639 9.84447 23.5615C9.65435 22.548 9.58448 21.5116 9.46911 20.4848C9.24514 18.4931 9.19693 16.4934 9.24731 14.4928C9.27222 13.5012 9.37703 12.5107 9.46586 11.5216C9.55009 10.5853 9.62375 9.64577 9.77027 8.71845C9.90676 7.8546 10.1167 7.00105 10.323 6.14994C10.6759 4.69509 11.1536 3.28607 11.8808 1.96738C12.2277 1.3384 12.6521 0.762592 13.2271 0.355483C14.0022 -0.193478 15.2956 -0.155506 16.0943 0.811955C16.9222 1.81495 17.4525 2.96196 17.8958 4.16376C17.9318 4.2614 17.9703 4.35823 18.0331 4.52178C18.2373 4.12416 18.3757 3.75665 18.5959 3.44773C18.958 2.93999 19.3065 2.38832 19.7805 2.00264C20.5908 1.34301 21.5736 1.51172 22.2961 2.27033C23.0293 3.04007 23.5119 3.96251 23.8317 4.94706C24.2401 6.205 24.5938 7.48871 24.8552 8.78463C25.09 9.94846 25.1818 11.1427 25.3123 12.326C25.5309 14.3065 25.5888 16.2941 25.4521 18.2816C25.3716 19.4538 25.2129 20.6204 25.1003 21.7907C24.9294 23.5659 24.4849 25.2787 23.9062 26.957C23.5744 27.9193 23.1498 28.8426 22.4627 29.6175C21.4192 30.7943 20.2647 30.7967 19.2784 29.5676C18.8773 29.0677 18.5886 28.4767 18.2544 27.9239C18.1807 27.8019 18.1306 27.6657 18.0632 27.5222H18.0637ZM16.2446 4.20526C15.9491 4.28635 15.5773 4.28201 15.3723 4.46455C14.7678 5.00266 14.3659 5.70188 14.0463 6.44884C13.3809 8.00431 12.9944 9.63763 12.7853 11.3035C12.6196 12.6255 12.5229 13.9637 12.5143 15.2954C12.5045 16.8045 12.5635 18.3206 12.7125 19.8219C12.8341 21.0492 13.0843 22.27 13.3646 23.4731C13.6322 24.622 14.0106 25.7454 14.7133 26.7238C15.0462 27.1867 15.4248 27.6299 15.9989 27.7457C16.6611 27.8794 17.1705 27.5336 17.5968 27.0462C17.7425 26.8794 17.7669 26.7305 17.6965 26.5163C17.4806 25.8588 17.2474 25.2019 17.1047 24.5271C16.8905 23.5143 16.7226 22.4899 16.5815 21.4642C16.4512 20.517 16.3551 19.5631 16.2936 18.609C16.2419 17.8045 16.2625 16.9954 16.2492 16.1885C16.2389 15.5685 16.1845 14.9458 16.2229 14.329C16.2898 13.2552 16.4027 12.1839 16.516 11.1136C16.5977 10.3409 16.6579 9.56006 16.8223 8.80362C17.0701 7.66447 17.4051 6.54458 17.69 5.4133C17.7211 5.28989 17.7154 5.10898 17.6453 5.01649C17.3011 4.56382 16.8981 4.1898 16.2449 4.20499L16.2446 4.20526ZM19.8322 16.0133C19.8349 17.5194 19.9774 19.0087 20.2777 20.4785C20.4868 21.5019 20.7034 22.5371 21.3087 23.4205C21.9273 24.3231 22.5968 24.4558 23.2679 23.5442C23.5807 23.1194 23.8068 22.6112 23.9837 22.1094C24.521 20.5835 24.707 18.9822 24.7739 17.3822C24.8259 16.1348 24.7235 14.8788 24.6442 13.6295C24.5992 12.9233 24.5007 12.2151 24.3563 11.5224C24.2122 10.831 24.0256 10.1408 23.7724 9.48276C23.601 9.03795 23.3304 8.60779 23.0165 8.2476C22.6312 7.80551 22.1079 7.81663 21.6909 8.23241C21.4533 8.46919 21.2581 8.76347 21.0988 9.06128C20.4613 10.2539 20.2327 11.5723 20.0478 12.8853C19.9023 13.9176 19.8988 14.9699 19.8322 16.0136V16.0133Z" fill="white"/>
<path id="Vector_2" d="M10.131 1.71524C9.94683 1.87363 9.754 2.02335 9.57959 2.19205C8.2103 3.51563 7.23804 5.11179 6.44399 6.8235C5.63585 8.56476 5.14728 10.4007 4.80821 12.2887C4.49947 14.0074 4.45858 15.7387 4.56637 17.461C4.73915 20.2239 5.42813 22.8706 6.6073 25.3924C7.39864 27.0849 8.51065 28.5294 9.77729 29.8741C9.88264 29.9859 10.0029 30.0835 10.0782 30.2541C9.63754 30.0518 9.172 29.8901 8.7617 29.6384C7.85931 29.0851 6.96478 28.5142 6.10735 27.8947C5.66402 27.5744 5.3588 27.0447 4.89542 26.7746C4.42716 26.5017 4.14198 26.0952 3.82918 25.7165C3.20683 24.9628 2.62239 24.1719 2.08562 23.3544C1.45189 22.3894 0.987698 21.3278 0.663251 20.2223C0.434134 19.4417 0.301701 18.6297 0.16656 17.8249C0.0720422 17.266 -0.000538636 16.6947 3.01176e-06 16.129C0.00162796 14.4843 0.252411 12.8773 0.77483 11.3093C1.38798 9.46984 2.36105 7.84737 3.59465 6.3654C4.99914 4.6781 6.69748 3.36185 8.62629 2.33146C8.99786 2.13292 9.36889 1.93357 9.7429 1.73992C9.84229 1.68838 9.95197 1.65665 10.0568 1.61597C10.0814 1.64906 10.1061 1.68215 10.131 1.71524Z" fill="white"/>
<path id="Vector_3" d="M29.4418 15.6826C29.5003 16.792 29.3541 17.8798 29.0332 18.9336C28.9105 19.3366 28.6386 19.7036 28.3894 20.0548C28.2448 20.2588 28.0352 20.2441 27.8277 20.0488C27.3958 19.6417 27.2203 19.1055 27.0808 18.5674C26.7753 17.3895 26.7512 16.1798 26.8181 14.9739C26.8736 13.9745 27.0136 12.9823 27.4759 12.0718C27.6132 11.8014 27.7527 11.5261 28.1384 11.5288C28.5078 11.5315 28.6784 11.7868 28.764 12.0566C28.9868 12.7588 29.1932 13.4705 29.3365 14.1923C29.4329 14.6769 29.4107 15.1852 29.4416 15.6829L29.4418 15.6826Z" fill="white"/>
</g>
<defs>
<clipPath id="clip0_7_1806">
<rect width="29.4545" height="32" fill="white"/>
</clipPath>
</defs>
</svg>
